<svg width="800" height="600" viewBox="0 0 800 600" xmlns="http://www.w3.org/2000/svg"><defs><linearGradient id="bg-gradient" x1="0%" y1="0%" x2="100%" y2="100%"><stop offset="0%" style="stop-color:#1a1a2e;stop-opacity:1" /><stop offset="100%" style="stop-color:#16213e;stop-opacity:1" /></linearGradient></defs><rect width="800" height="600" fill="url(#bg-gradient)" rx="20" /><text x="400" y="40" text-anchor="middle" fill="#00d9ff" font-family="monospace" font-size="24" font-weight="bold">PPA HARDWARE IDENTITY</text><text x="400" y="70" text-anchor="middle" fill="#ffffff" font-family="monospace" font-size="18">PowerPC G4</text><text x="400" y="95" text-anchor="middle" fill="#888888" font-family="monospace" font-size="12">g4_mac_mini_1.42ghz</text><circle cx="720" cy="80" r="35" fill="none" stroke="#00ff88" stroke-width="4" /><text x="720" y="85" text-anchor="middle" fill="#00ff88" font-family="monospace" font-size="20" font-weight="bold">82%</text><circle cx="200" cy="280" r="30.0" fill="none" stroke="#333333" stroke-width="1" /><circle cx="200" cy="280" r="60.0" fill="none" stroke="#333333" stroke-width="1" /><circle cx="200" cy="280" r="90.0" fill="none" stroke="#333333" stroke-width="1" /><circle cx="200" cy="280" r="120.0" fill="none" stroke="#333333" stroke-width="1" /><line x1="200" y1="280" x2="200.0" y2="160.0" stroke="#333333" stroke-width="1" /><text x="200.0" y="135.0" text-anchor="middle" dominant-baseline="middle" fill="#aaaaaa" font-family="monospace" font-size="9">clock
dr</text><line x1="200" y1="280" x2="293.8197778961636" y2="205.18122377695198" stroke="#333333" stroke-width="1" /><text x="313.3655649578643" y="189.59397873048363" text-anchor="middle" dominant-baseline="middle" fill="#aaaaaa" font-family="monospace" font-size="9">cache
ti</text><line x1="200" y1="280" x2="316.9913494618188" y2="306.70251207475775" stroke="#333333" stroke-width="1" /><text x="341.3645472663644" y="312.2655354236656" text-anchor="middle" dominant-baseline="middle" fill="#aaaaaa" font-family="monospace" font-size="9">simd
ide</text><line x1="200" y1="280" x2="252.066048694107" y2="388.11626414829027" stroke="#333333" stroke-width="1" /><text x="262.9131421720459" y="410.6404858458508" text-anchor="middle" dominant-baseline="middle" fill="#aaaaaa" font-family="monospace" font-size="9">thermal
</text><line x1="200" y1="280" x2="147.93395130589303" y2="388.11626414829027" stroke="#333333" stroke-width="1" /><text x="137.08685782795408" y="410.6404858458508" text-anchor="middle" dominant-baseline="middle" fill="#aaaaaa" font-family="monospace" font-size="9">instruct</text><line x1="200" y1="280" x2="83.00865053818117" y2="306.70251207475775" stroke="#333333" stroke-width="1" /><text x="58.63545273363559" y="312.2655354236656" text-anchor="middle" dominant-baseline="middle" fill="#aaaaaa" font-family="monospace" font-size="9">anti
emu</text><line x1="200" y1="280" x2="106.18022210383641" y2="205.18122377695198" stroke="#333333" stroke-width="1" /><text x="86.63443504213566" y="189.59397873048366" text-anchor="middle" dominant-baseline="middle" fill="#aaaaaa" font-family="monospace" font-size="9">fleet
de</text><polygon points="200.0,175.6 286.3141956644705,211.16672587479582 291.2532525802187,300.827959418311 233.84293165116952,350.2755716963887 163.03310542718407,356.7625475452861 88.8582180112721,305.36738647101987 117.43859545137605,214.15947692371776" fill="rgba(0, 217, 255, 0.3)" stroke="#00d9ff" stroke-width="2" /><text x="200" y="120" text-anchor="middle" fill="#ffffff" font-family="monospace" font-size="12">Channel Scores</text><rect x="450" y="200" width="300" height="100" fill="#0a0a0f" stroke="#333333" rx="5" /><line x1="450" y1="200.0" x2="750" y2="200.0" stroke="#1a1a2e" stroke-width="1" /><line x1="450" y1="225.0" x2="750" y2="225.0" stroke="#1a1a2e" stroke-width="1" /><line x1="450" y1="250.0" x2="750" y2="250.0" stroke="#1a1a2e" stroke-width="1" /><line x1="450" y1="275.0" x2="750" y2="275.0" stroke="#1a1a2e" stroke-width="1" /><line x1="450" y1="300.0" x2="750" y2="300.0" stroke="#1a1a2e" stroke-width="1" /><polyline points="450.0,218.0 483.3333333333333,215.0 516.6666666666666,213.0 550.0,211.0 583.3333333333334,214.0 616.6666666666666,216.0 650.0,212.0 683.3333333333334,213.0 716.6666666666667,215.0 750.0,214.0" fill="none" stroke="#00ff88" stroke-width="2" /><text x="600" y="190" text-anchor="middle" fill="#ffffff" font-family="monospace" font-size="12">Clock Drift Waveform</text><text x="600" y="340" text-anchor="middle" fill="#ffffff" font-family="monospace" font-size="12">Cache Latency Heatmap</text><rect x="450.0" y="350.0" width="74.0" height="24.0" fill="#7f7f64" /><rect x="525.0" y="350.0" width="74.0" height="24.0" fill="#00ff64" /><rect x="600.0" y="350.0" width="74.0" height="24.0" fill="#ff0064" /><rect x="675.0" y="350.0" width="74.0" height="24.0" fill="#55aa64" /><rect x="450.0" y="375.0" width="74.0" height="24.0" fill="#aa5564" /><rect x="525.0" y="375.0" width="74.0" height="24.0" fill="#2ad464" /><rect x="600.0" y="375.0" width="74.0" height="24.0" fill="#d42a64" /><rect x="675.0" y="375.0" width="74.0" height="24.0" fill="#7f7f64" /><rect x="450.0" y="400.0" width="74.0" height="24.0" fill="#55aa64" /><rect x="525.0" y="400.0" width="74.0" height="24.0" fill="#aa5564" /><rect x="600.0" y="400.0" width="74.0" height="24.0" fill="#7f7f64" /><rect x="675.0" y="400.0" width="74.0" height="24.0" fill="#2ad464" /><rect x="450.0" y="425.0" width="74.0" height="24.0" fill="#d42a64" /><rect x="525.0" y="425.0" width="74.0" height="24.0" fill="#55aa64" /><rect x="600.0" y="425.0" width="74.0" height="24.0" fill="#aa5564" /><rect x="675.0" y="425.0" width="74.0" height="24.0" fill="#7f7f64" /><text x="200" y="345" text-anchor="middle" fill="#ffffff" font-family="monospace" font-size="12">Jitter Constellation</text><circle cx="200" cy="480" r="120" fill="#0a0a0f" stroke="#333333" /><circle cx="252.8" cy="525.6" r="6" fill="#ffaa00" opacity="0.3" /><circle cx="252.8" cy="525.6" r="3" fill="#ffdd00" /><circle cx="250.39999999999998" cy="535.2" r="6" fill="#ffaa00" opacity="0.3" /><circle cx="250.39999999999998" cy="535.2" r="3" fill="#ffdd00" /><circle cx="248.0" cy="532.8" r="6" fill="#ffaa00" opacity="0.3" /><circle cx="248.0" cy="532.8" r="3" fill="#ffdd00" /><circle cx="255.2" cy="528.0" r="6" fill="#ffaa00" opacity="0.3" /><circle cx="255.2" cy="528.0" r="3" fill="#ffdd00" /><line x1="252.8" y1="525.6" x2="250.39999999999998" y2="535.2" stroke="#ffaa00" stroke-width="1" opacity="0.5" /><line x1="250.39999999999998" y1="535.2" x2="248.0" y2="532.8" stroke="#ffaa00" stroke-width="1" opacity="0.5" /><line x1="248.0" y1="532.8" x2="255.2" y2="528.0" stroke="#ffaa00" stroke-width="1" opacity="0.5" /><line x1="255.2" y1="528.0" x2="252.8" y2="525.6" stroke="#ffaa00" stroke-width="1" opacity="0.5" /></svg>